<svg xmlns="http://www.w3.org/2000/svg" xmlns:xlink="http://www.w3.org/1999/xlink" width="10" height="10" viewBox="0 0 10 10"><defs><style>.a{fill:none;}.b{clip-path:url(#a);}.c{clip-path:url(#b);}.d{fill:#999;}</style><clipPath id="a"><path class="a" d="M339.728-228.493l4.11-4.092a.5.5,0,0,0,0-.706.506.506,0,0,0-.712,0l-4.106,4.089-4.144-4.149a.5.5,0,0,0-.712,0,.507.507,0,0,0,0,.715l4.141,4.146-4.156,4.138a.5.5,0,0,0,0,.706.506.506,0,0,0,.712,0l4.153-4.134,4.128,4.133a.5.5,0,0,0,.712,0,.508.508,0,0,0,0-.715Z" transform="translate(-334 233.5)"/></clipPath><clipPath id="b"><path class="a" d="M0,0H360V-780H0Z" transform="translate(0 780)"/></clipPath></defs><g class="b"><g class="c" transform="translate(-334 -546.5)"><path class="d" d="M329-218.5h20v-20H329Z" transform="translate(0 780)"/></g></g></svg>