<svg xmlns="http://www.w3.org/2000/svg" xmlns:xlink="http://www.w3.org/1999/xlink" width="17.107" height="17.107" viewBox="0 0 17.107 17.107"><defs><style>.a,.b,.h,.i{fill:none;}.a{clip-rule:evenodd;}.c{clip-path:url(#a);}.d{clip-path:url(#b);}.e{isolation:isolate;}.f{clip-path:url(#c);}.g{clip-path:url(#d);}.h,.i{stroke:#666;}.h{stroke-width:2px;}.i{stroke-linecap:round;stroke-width:0.951px;}</style><clipPath id="a"><path class="a" d="M23.084-222.332a7.084,7.084,0,0,0,7.084-7.084,7.084,7.084,0,0,0-7.084-7.084A7.084,7.084,0,0,0,16-229.416,7.084,7.084,0,0,0,23.084-222.332Z" transform="translate(-16 236.5)"/></clipPath><clipPath id="b"><path class="b" d="M0,49.908H383.034V-780H0Z" transform="translate(0 780)"/></clipPath><clipPath id="c"><rect class="b" width="36.175" height="36.175"/></clipPath><clipPath id="d"><path class="b" d="M16-222.1H30.9V-237H16Z" transform="translate(-16 237)"/></clipPath></defs><g class="c"><g class="d" transform="translate(-17.024 -578.275)"><g class="e" transform="translate(6.384 567.104)"><g class="f"><g class="g" transform="translate(10.64 10.64)"><g transform="translate(0 0.532)"><path class="h" d="M7.084,14.168A7.084,7.084,0,1,0,0,7.084,7.084,7.084,0,0,0,7.084,14.168Z"/></g></g></g></g></g></g><g transform="translate(12.144 12.143)"><path class="i" d="M0,0,4.291,4.291"/></g></svg>